<?xml version="1.0" standalone="no"?>
<!DOCTYPE svg PUBLIC "-//W3C//DTD SVG 20010904//EN"
 "http://www.w3.org/TR/2001/REC-SVG-20010904/DTD/svg10.dtd">
<svg version="1.0" xmlns="http://www.w3.org/2000/svg"
 width="1280.000000pt" height="1280.000000pt" viewBox="0 0 1280.000000 1280.000000"
 preserveAspectRatio="xMidYMid meet">
<metadata>
Created by potrace 1.14, written by Peter Selinger 2001-2017
</metadata>
<g transform="translate(0.000000,1280.000000) scale(0.100000,-0.100000)"
fill="#000000" stroke="none">
<path d="M6073 12783 c3 -5 -25 -8 -61 -7 -37 1 -73 -4 -81 -10 -11 -8 -13 -8
-7 2 8 13 -6 17 -18 5 -3 -4 -23 -7 -44 -7 -20 -1 -43 -5 -51 -10 -10 -6 -12
-5 -7 2 9 16 -7 15 -22 0 -9 -9 -12 -9 -12 1 0 10 -3 11 -13 2 -10 -8 -17 -7
-27 2 -10 10 -11 9 -5 -2 6 -11 1 -13 -24 -9 -17 2 -31 1 -31 -3 0 -3 -12 -7
-27 -7 -16 0 -48 -3 -73 -6 -25 -4 -54 -7 -65 -7 -10 0 -25 -5 -32 -11 -9 -7
-13 -7 -13 1 0 8 -6 9 -17 3 -10 -5 -30 -9 -45 -8 -16 1 -28 -2 -28 -6 0 -4
-10 -8 -22 -8 -41 0 -68 -4 -68 -10 0 -3 -19 -6 -43 -8 -71 -5 -77 -6 -77 -13
0 -3 -11 -5 -25 -4 -14 2 -25 -1 -25 -5 0 -5 -9 -7 -20 -5 -11 2 -22 0 -25 -5
-3 -4 -16 -7 -30 -5 -14 1 -28 -2 -31 -6 -3 -5 -16 -9 -29 -9 -13 0 -27 -5
-31 -11 -4 -8 -9 -7 -15 2 -6 10 -9 10 -9 2 0 -7 -7 -10 -15 -7 -8 4 -15 2
-15 -3 0 -5 -8 -9 -17 -10 -34 -2 -88 -15 -93 -21 -3 -4 -14 -8 -25 -9 -11 -1
-31 -5 -45 -8 -14 -4 -33 -8 -42 -8 -10 -1 -18 -5 -18 -10 0 -5 -7 -6 -16 -3
-8 3 -13 2 -10 -3 3 -5 -4 -9 -17 -9 -29 0 -51 -5 -57 -14 -3 -4 -21 -10 -40
-13 -19 -3 -46 -13 -59 -22 -15 -9 -21 -10 -16 -2 5 7 4 10 -2 6 -22 -14 -69
-31 -92 -33 -13 -2 -28 -9 -32 -16 -4 -7 -11 -9 -15 -5 -4 4 -18 0 -31 -8 -13
-9 -23 -13 -23 -9 0 4 -7 1 -15 -6 -8 -7 -15 -10 -15 -6 0 4 -13 0 -29 -8 -16
-9 -31 -12 -35 -9 -3 4 -6 1 -6 -6 0 -7 -4 -9 -10 -6 -5 3 -10 2 -10 -2 0 -5
-8 -9 -17 -10 -10 -1 -43 -13 -74 -27 -31 -14 -60 -22 -63 -19 -3 4 -6 1 -6
-5 0 -7 -9 -12 -20 -12 -11 0 -20 -5 -20 -11 0 -5 -4 -8 -9 -4 -5 3 -15 -1
-23 -8 -7 -8 -18 -12 -24 -10 -7 2 -19 -3 -28 -12 -9 -9 -16 -13 -16 -9 0 3
-7 1 -15 -6 -8 -7 -15 -9 -15 -5 0 5 -10 0 -22 -11 -13 -12 -18 -13 -13 -4 6
10 2 9 -12 -3 -12 -10 -27 -20 -35 -21 -21 -4 -70 -28 -101 -49 -16 -11 -31
-17 -34 -14 -3 4 -12 -1 -20 -9 -8 -8 -19 -12 -24 -8 -5 3 -12 -2 -15 -10 -3
-9 -14 -16 -24 -16 -10 0 -26 -7 -34 -16 -9 -8 -16 -12 -16 -8 0 3 -6 2 -12
-4 -29 -23 -146 -80 -154 -74 -4 4 -4 2 0 -5 4 -7 -3 -14 -16 -19 -13 -4 -25
-9 -28 -13 -8 -9 -82 -51 -102 -58 -10 -3 -18 -10 -18 -15 0 -5 -4 -6 -10 -3
-5 3 -10 2 -10 -2 0 -5 -20 -19 -45 -33 -25 -14 -45 -28 -45 -33 0 -4 -4 -5
-10 -2 -5 3 -10 1 -10 -5 0 -6 -4 -9 -9 -5 -6 3 -14 -3 -20 -12 -6 -10 -11
-14 -11 -10 0 8 -13 -1 -51 -35 -10 -10 -22 -17 -25 -17 -7 2 -39 -19 -60 -38
-7 -7 -17 -13 -22 -13 -5 0 -17 -9 -27 -20 -10 -11 -20 -18 -23 -15 -3 2 -13
-5 -23 -17 -11 -11 -19 -18 -19 -15 0 7 -28 -14 -60 -44 -9 -8 -23 -13 -31
-11 -8 3 -11 1 -7 -3 4 -4 -16 -24 -45 -45 -75 -56 -97 -73 -118 -94 -10 -11
-19 -17 -19 -13 0 3 -13 -6 -29 -21 -16 -15 -43 -38 -61 -52 -18 -14 -45 -37
-61 -52 -16 -15 -29 -25 -29 -22 0 3 -20 -15 -45 -40 -25 -26 -45 -44 -45 -41
0 2 -9 -3 -19 -12 -11 -9 -17 -21 -14 -26 3 -6 1 -7 -6 -3 -6 4 -14 1 -17 -8
-3 -8 -14 -18 -25 -21 -11 -4 -17 -10 -14 -15 3 -5 -4 -11 -15 -15 -11 -4 -18
-10 -15 -15 3 -5 -4 -11 -15 -15 -11 -3 -20 -13 -20 -21 0 -8 -3 -13 -8 -12
-11 3 -72 -55 -72 -70 0 -7 -5 -10 -10 -7 -6 3 -13 -1 -16 -9 -3 -9 -13 -16
-21 -16 -8 0 -11 -4 -8 -10 3 -5 1 -10 -5 -10 -6 0 -8 -4 -5 -10 3 -5 0 -10
-7 -10 -13 0 -98 -88 -98 -102 0 -5 -5 -6 -10 -3 -6 3 -10 1 -10 -4 0 -6 -20
-30 -45 -54 -25 -24 -45 -49 -45 -56 0 -6 -5 -11 -10 -11 -6 0 -15 -11 -22
-25 -6 -13 -15 -22 -19 -19 -5 3 -9 0 -9 -6 0 -6 -5 -8 -12 -4 -6 4 -8 3 -4
-4 3 -6 -8 -26 -26 -45 -18 -19 -41 -45 -51 -58 -42 -55 -73 -94 -89 -111 -10
-10 -18 -21 -18 -24 0 -3 -6 -12 -13 -19 -6 -8 -21 -26 -32 -40 -11 -14 -28
-36 -38 -48 -11 -12 -25 -35 -33 -50 -8 -15 -19 -25 -24 -22 -6 4 -7 -1 -3
-11 4 -12 3 -15 -5 -10 -7 4 -12 1 -12 -8 0 -9 -4 -16 -10 -16 -5 0 -10 -6
-10 -14 0 -8 -9 -21 -20 -29 -11 -8 -17 -16 -14 -20 3 -3 -3 -14 -13 -25 -33
-37 -43 -51 -43 -62 0 -5 -4 -10 -10 -10 -5 0 -10 -5 -10 -11 0 -18 -47 -79
-55 -71 -5 4 -6 3 -3 -3 7 -12 -27 -77 -36 -68 -3 3 -6 -1 -6 -10 0 -8 -7 -23
-16 -31 -8 -9 -12 -16 -7 -16 4 0 -1 -7 -11 -15 -11 -8 -16 -15 -12 -15 4 0
-2 -13 -13 -29 -12 -16 -21 -34 -21 -40 0 -6 -3 -11 -7 -11 -5 0 -13 -10 -19
-23 -30 -60 -60 -112 -66 -115 -5 -2 -8 -10 -8 -18 0 -8 -5 -14 -12 -14 -6 0
-9 -3 -5 -6 3 -3 -5 -23 -18 -44 -13 -21 -21 -41 -18 -44 4 -3 2 -6 -4 -6 -6
0 -14 -7 -17 -16 -4 -10 -2 -13 7 -9 6 4 3 -1 -7 -9 -11 -9 -16 -16 -10 -16 5
0 0 -7 -10 -15 -11 -8 -16 -15 -12 -15 5 0 3 -7 -4 -15 -7 -8 -9 -15 -4 -15 5
0 1 -7 -9 -14 -10 -8 -17 -18 -15 -22 1 -5 -8 -28 -20 -50 -11 -23 -18 -44
-15 -48 4 -3 1 -6 -5 -6 -7 0 -12 -7 -12 -15 0 -9 -7 -18 -15 -21 -8 -4 -15
-10 -15 -16 0 -5 6 -6 13 -3 6 4 4 0 -5 -8 -10 -8 -15 -17 -11 -21 4 -4 2 -10
-5 -14 -6 -5 -13 -17 -15 -27 -2 -11 -11 -35 -20 -52 -10 -18 -17 -35 -17 -38
0 -3 -7 -20 -17 -38 -9 -17 -17 -34 -18 -37 0 -3 -4 -11 -9 -19 -7 -10 -5 -12
5 -7 10 6 10 4 -1 -6 -8 -7 -16 -22 -18 -32 -2 -10 -10 -25 -18 -33 -17 -18
-18 -27 -1 -16 6 4 4 -5 -6 -20 -10 -15 -15 -32 -12 -37 3 -6 1 -10 -5 -10 -6
0 -8 -4 -5 -10 3 -5 1 -10 -5 -10 -6 0 -8 -4 -5 -10 3 -5 1 -10 -5 -10 -6 0
-9 -4 -6 -9 5 -8 -7 -46 -44 -136 -11 -27 -24 -78 -22 -87 1 -5 -3 -8 -8 -8
-6 0 -10 -6 -9 -12 1 -7 0 -20 -3 -28 -4 -8 -9 -24 -14 -35 -4 -11 -8 -24 -8
-30 -1 -5 -8 -30 -16 -55 -19 -65 -22 -73 -23 -92 -1 -10 -5 -18 -9 -18 -4 0
-5 -9 -3 -20 2 -11 0 -20 -4 -20 -5 0 -12 -20 -15 -45 -4 -25 -11 -45 -15 -45
-5 0 -6 -12 -3 -26 3 -15 1 -24 -4 -21 -5 3 -9 -8 -10 -23 -1 -15 -5 -36 -9
-46 -4 -11 -9 -30 -11 -44 -7 -52 -12 -79 -18 -89 -4 -5 -7 -26 -8 -46 -1 -19
-6 -35 -11 -35 -5 0 -3 -8 4 -17 12 -14 12 -16 0 -8 -11 6 -13 3 -9 -13 4 -13
0 -23 -9 -26 -10 -4 -11 -10 -3 -25 6 -12 6 -22 1 -26 -6 -3 -8 -14 -6 -25 2
-11 0 -22 -4 -25 -5 -2 -7 -16 -6 -30 2 -14 0 -25 -4 -25 -4 0 -7 -12 -8 -27
-2 -64 -8 -103 -16 -103 -4 0 -3 -10 4 -21 7 -15 8 -19 0 -15 -7 5 -10 -3 -7
-24 2 -17 0 -33 -5 -35 -4 -3 -6 -17 -3 -30 2 -14 1 -25 -4 -25 -10 0 -9 -30
2 -48 4 -6 3 -12 -1 -12 -8 0 -11 -17 -17 -110 -1 -14 -5 -31 -9 -37 -5 -7 -4
-13 0 -13 5 0 9 -9 9 -20 0 -11 -3 -20 -6 -20 -8 0 -9 -44 -15 -418 -4 -245
-2 -311 8 -306 9 6 9 4 2 -7 -12 -16 -13 -68 -2 -86 5 -7 4 -13 -2 -13 -6 0
-7 -11 -2 -27 4 -16 6 -41 4 -56 -3 -20 0 -27 8 -22 8 6 8 2 0 -12 -6 -11 -8
-23 -5 -26 3 -2 7 -19 9 -36 3 -23 1 -30 -8 -24 -7 4 -6 0 2 -10 8 -10 11 -20
8 -24 -4 -3 -1 -13 6 -21 10 -13 9 -14 -1 -8 -11 7 -12 4 -5 -10 5 -11 9 -38
9 -61 -1 -24 2 -43 5 -43 4 0 6 -8 5 -17 -2 -10 2 -21 8 -25 8 -5 7 -8 -2 -8
-7 0 -11 -4 -8 -8 3 -5 6 -27 7 -50 2 -23 6 -42 10 -42 4 0 6 -9 4 -20 -2 -11
-1 -22 3 -24 4 -2 7 -23 6 -45 0 -23 2 -41 5 -41 3 0 6 -10 7 -22 1 -34 11
-85 20 -99 5 -8 3 -10 -5 -4 -10 6 -11 3 -2 -13 6 -11 11 -32 11 -46 0 -14 5
-26 11 -26 8 0 8 -4 0 -14 -9 -10 -9 -16 -1 -21 6 -4 9 -13 6 -20 -2 -7 -2
-16 2 -19 6 -7 11 -26 17 -66 7 -44 15 -79 25 -105 5 -14 8 -25 6 -25 -2 0 2
-20 9 -44 8 -24 11 -47 8 -50 -4 -3 -2 -6 3 -6 5 0 11 -14 12 -32 2 -18 8 -36
15 -40 9 -6 8 -8 -3 -8 -10 0 -11 -3 -3 -8 6 -4 13 -21 16 -39 3 -17 9 -38 13
-45 5 -7 7 -21 5 -32 -2 -12 1 -16 10 -11 8 5 10 4 5 -3 -4 -6 0 -27 8 -47 11
-26 12 -35 3 -35 -8 0 -9 -3 -1 -8 12 -8 25 -37 31 -66 2 -11 8 -25 14 -33 9
-10 8 -13 -2 -13 -9 0 -10 -3 -3 -8 6 -4 17 -25 24 -47 7 -22 15 -44 19 -50 6
-11 12 -32 13 -52 1 -7 4 -13 8 -13 3 0 13 -22 20 -50 7 -27 17 -50 20 -50 4
0 7 -6 7 -14 0 -13 24 -72 44 -110 8 -14 7 -17 -3 -11 -8 4 -7 1 2 -7 8 -7 17
-22 18 -33 2 -11 7 -22 10 -25 4 -3 9 -14 10 -25 2 -11 7 -22 12 -25 9 -6 25
-52 22 -63 -1 -4 4 -10 12 -13 8 -3 13 -11 10 -19 -3 -7 1 -19 8 -26 7 -8 14
-21 16 -29 2 -8 9 -18 15 -22 7 -4 9 -8 4 -8 -4 0 -1 -14 8 -30 9 -17 12 -30
8 -30 -5 0 0 -5 10 -11 9 -5 17 -18 17 -27 0 -9 7 -26 15 -36 8 -10 12 -23 9
-27 -3 -5 -1 -9 4 -9 5 0 15 -15 23 -32 7 -18 21 -45 31 -60 10 -14 18 -33 18
-42 0 -9 5 -16 10 -16 6 0 10 -7 10 -15 0 -8 5 -15 11 -15 5 0 8 -4 5 -9 -3
-4 3 -19 14 -31 18 -21 22 -29 19 -46 0 -4 3 -10 8 -13 13 -10 63 -90 63 -101
0 -7 6 -18 13 -25 31 -36 39 -47 34 -52 -5 -4 11 -27 40 -58 7 -7 9 -15 6 -19
-4 -3 0 -6 7 -6 7 0 11 -3 7 -6 -3 -4 -1 -12 6 -20 30 -33 37 -44 31 -44 -4 0
3 -8 14 -19 12 -10 19 -21 15 -25 -3 -3 -1 -6 6 -6 7 0 10 -4 7 -9 -3 -4 3
-16 14 -26 11 -10 20 -24 20 -30 0 -7 7 -16 16 -19 9 -4 14 -13 10 -21 -3 -9
0 -15 8 -15 13 0 23 -14 24 -33 0 -5 10 -17 21 -26 12 -10 21 -21 21 -25 0 -5
22 -35 46 -60 6 -6 11 -14 12 -19 2 -8 14 -25 54 -69 15 -17 25 -34 22 -39 -3
-5 2 -9 10 -9 9 0 16 -4 16 -10 0 -9 19 -35 47 -65 7 -8 13 -18 13 -24 0 -5 9
-13 20 -16 11 -3 20 -13 20 -21 0 -8 5 -14 10 -14 6 0 10 -5 10 -10 0 -6 12
-23 26 -38 63 -67 102 -112 97 -112 -3 0 13 -18 36 -40 22 -22 41 -45 41 -51
0 -5 5 -7 10 -4 5 3 10 -1 10 -9 0 -8 9 -18 20 -21 11 -3 20 -11 20 -16 0 -14
217 -229 230 -229 6 0 9 -3 7 -7 -2 -5 4 -16 15 -25 10 -10 18 -16 18 -13 0 2
10 -6 23 -18 13 -12 22 -25 20 -29 -2 -5 2 -8 9 -8 8 0 20 -9 28 -20 8 -11 20
-20 28 -20 7 0 11 -4 8 -8 -3 -5 6 -15 19 -22 13 -7 22 -17 19 -22 -3 -4 1 -8
10 -8 8 0 26 -14 40 -31 14 -17 26 -27 26 -22 0 4 5 0 11 -10 6 -9 14 -15 20
-12 5 4 9 1 9 -5 0 -6 7 -13 15 -17 9 -3 33 -23 54 -44 21 -21 41 -36 44 -32
4 3 7 -1 7 -11 0 -9 4 -15 9 -11 5 3 17 -5 25 -17 9 -12 16 -19 16 -14 0 5 9
-1 20 -14 11 -13 20 -20 20 -16 0 4 10 -3 23 -14 12 -12 34 -29 50 -38 15 -9
27 -20 27 -24 0 -4 7 -8 15 -8 8 0 15 -4 15 -10 0 -5 7 -10 16 -10 8 0 12 -4
9 -10 -3 -5 0 -10 8 -10 8 0 22 -9 32 -20 10 -11 20 -18 23 -15 3 2 13 -5 23
-17 11 -11 19 -18 19 -14 0 7 14 -4 51 -36 10 -10 19 -16 19 -13 0 2 28 -15
63 -39 34 -23 70 -45 80 -49 9 -3 17 -11 17 -16 0 -6 7 -7 17 -4 11 4 14 3 9
-5 -4 -7 -2 -12 3 -12 10 0 110 -58 121 -70 3 -3 19 -12 35 -20 17 -8 36 -21
44 -28 7 -7 20 -11 28 -8 8 3 11 1 8 -4 -3 -6 0 -10 8 -10 7 0 22 -8 33 -18
11 -9 26 -18 34 -20 8 -2 18 -8 21 -14 3 -5 9 -9 13 -9 15 2 105 -43 100 -51
-3 -4 3 -8 13 -8 10 0 27 -7 37 -15 10 -8 23 -12 27 -9 5 3 9 0 9 -5 0 -6 9
-11 20 -11 11 0 20 -4 20 -8 0 -9 64 -37 76 -33 4 2 10 -3 15 -11 5 -7 12 -13
16 -13 4 0 28 -10 53 -21 60 -28 83 -38 93 -36 4 1 7 -3 7 -9 0 -5 5 -7 10 -4
6 3 10 1 10 -6 0 -6 8 -9 20 -6 11 3 18 1 14 -4 -5 -8 9 -13 29 -10 4 0 7 -4
7 -10 0 -6 7 -9 15 -5 8 3 15 1 15 -5 0 -6 5 -7 10 -4 6 3 10 1 10 -4 0 -6 9
-11 19 -11 11 0 23 -5 26 -10 4 -6 10 -8 15 -5 5 3 11 1 15 -5 4 -6 11 -8 16
-5 5 4 9 1 9 -5 0 -6 4 -8 10 -5 5 3 10 0 10 -7 0 -9 3 -9 10 2 5 8 10 10 10
4 0 -13 138 -66 151 -58 5 3 9 0 9 -6 0 -6 4 -9 9 -6 5 4 11 2 13 -4 1 -5 15
-11 31 -12 15 -1 27 -6 27 -11 0 -5 7 -7 15 -4 8 4 17 2 20 -4 4 -5 11 -7 16
-4 5 4 9 2 9 -3 0 -5 6 -9 13 -10 22 -2 41 -8 62 -19 11 -5 26 -8 33 -6 6 3
12 0 12 -6 0 -5 9 -8 20 -6 11 2 22 -1 25 -6 4 -5 11 -7 16 -4 5 4 9 1 9 -5 0
-6 5 -8 10 -5 6 4 22 0 35 -9 17 -11 26 -12 31 -5 3 6 9 7 13 3 3 -5 21 -14
39 -21 24 -8 32 -8 32 0 0 8 3 7 9 -2 5 -7 21 -14 37 -16 31 -3 59 -11 86 -26
12 -6 18 -6 18 2 0 8 4 8 13 2 12 -10 51 -20 117 -30 19 -3 37 -8 40 -12 5 -7
25 -10 82 -14 21 -1 38 -4 38 -7 0 -3 19 -6 42 -8 23 -1 46 -8 50 -15 6 -9 8
-8 8 3 0 9 3 11 8 5 4 -6 19 -10 35 -10 15 1 27 -2 27 -5 0 -3 15 -5 33 -5 17
0 37 -2 42 -4 13 -7 32 -10 82 -13 24 -2 43 -5 43 -8 0 -6 47 -10 103 -10 15
0 37 -5 49 -11 14 -8 18 -8 14 0 -8 12 6 15 18 4 11 -12 88 -14 599 -18 340
-2 497 0 497 7 0 7 5 7 13 -1 8 -6 17 -8 20 -4 4 3 30 7 59 9 108 7 148 11
154 17 3 3 16 2 29 -3 14 -5 26 -5 32 1 6 6 32 12 59 15 27 3 67 7 89 10 22 3
52 6 68 7 15 1 27 5 27 9 0 4 9 5 20 3 11 -2 20 1 20 7 0 7 6 6 15 -2 10 -9
15 -9 15 -1 0 6 3 10 8 9 10 -3 129 16 135 22 1 1 13 3 27 4 14 2 32 6 41 10
9 4 20 6 25 5 5 -1 12 0 17 1 16 5 28 8 48 9 11 0 18 5 15 10 -3 4 5 6 18 4
13 -3 27 0 31 7 5 8 10 8 21 -1 11 -9 14 -9 14 0 0 7 5 9 10 6 6 -3 10 -1 10
5 0 6 5 8 10 5 6 -3 15 -3 22 1 7 4 23 9 37 10 13 2 28 9 32 16 7 10 9 10 9 0
0 -9 5 -10 19 -3 10 6 21 7 25 4 3 -3 6 -1 6 5 0 6 8 11 18 11 46 2 62 6 62
14 0 5 7 7 15 4 8 -4 17 -2 20 4 4 5 11 7 16 4 5 -4 9 -2 9 3 0 5 6 9 13 10
22 2 42 7 55 15 6 5 12 6 12 2 0 -3 16 1 36 10 19 8 41 14 47 12 7 -1 11 3 10
9 -1 6 9 10 22 8 14 -1 27 2 31 7 3 5 15 9 28 9 12 0 26 3 29 7 12 11 105 41
111 35 3 -3 6 0 6 6 0 7 9 12 19 12 11 0 23 5 26 10 4 6 10 8 15 5 5 -3 12 0
15 6 4 5 13 8 21 5 8 -3 17 1 20 9 4 8 9 13 13 11 4 -3 25 4 48 14 23 10 44
16 47 12 3 -3 6 0 6 7 0 7 5 9 10 6 6 -3 10 -1 10 4 0 6 9 11 19 11 11 0 26 7
34 15 8 8 17 11 21 8 3 -3 12 -1 19 5 8 7 17 9 20 5 4 -3 7 -1 7 5 0 7 9 12
21 12 11 0 17 4 14 10 -3 6 1 7 9 4 10 -4 16 -1 16 7 0 7 3 10 6 6 4 -3 26 5
49 18 24 13 46 21 49 18 3 -4 6 0 6 7 0 7 3 10 6 7 4 -4 19 2 34 13 15 11 30
17 34 13 3 -3 6 -1 6 5 0 7 3 11 8 11 20 -3 32 2 26 13 -4 6 -3 8 3 5 12 -7
63 14 63 26 0 5 5 5 10 2 6 -3 10 -1 10 5 0 7 7 10 15 6 8 -3 15 -1 15 5 0 5
14 15 30 20 17 6 30 15 30 21 0 5 5 6 10 3 6 -3 10 -1 10 5 0 6 5 8 10 5 6 -3
17 0 25 7 34 30 43 36 49 31 3 -3 8 1 12 10 3 9 11 14 18 11 7 -3 23 4 35 15
13 12 28 18 33 15 4 -3 7 0 6 6 -2 7 6 14 17 16 11 1 21 8 23 14 2 5 8 8 13 4
5 -3 9 0 9 5 0 6 7 11 15 11 9 0 18 7 21 15 4 8 15 15 25 15 10 0 19 5 19 10
0 6 7 10 15 10 7 0 18 8 24 18 5 9 12 16 15 15 12 -5 36 10 30 18 -3 5 -2 8 3
7 16 -4 51 13 57 28 3 8 10 12 16 9 5 -3 10 -1 10 6 0 7 3 9 7 6 3 -4 13 2 20
13 8 11 19 18 24 15 5 -4 9 -1 9 6 0 7 3 10 6 6 3 -3 17 5 30 18 13 13 33 26
44 30 11 4 18 11 15 16 -4 5 2 9 12 9 10 0 24 9 31 21 8 12 19 18 28 15 8 -3
13 -2 10 3 -3 4 6 13 19 19 14 7 25 16 25 22 0 5 4 10 9 10 10 0 49 31 89 70
14 14 21 18 17 10 -5 -8 6 -1 25 17 18 18 38 30 43 26 6 -3 7 -1 3 5 -3 6 7
19 24 28 16 10 30 22 30 27 0 4 5 5 10 2 6 -3 10 1 10 9 0 9 7 16 15 16 8 0
15 4 15 8 0 5 11 15 25 22 14 7 25 20 25 28 0 9 3 12 6 9 4 -4 21 8 38 26 17
18 39 36 49 40 10 4 15 12 12 17 -4 6 -2 9 3 8 5 -2 24 12 41 29 17 18 33 33
36 33 2 0 74 70 159 155 86 85 153 155 151 155 -2 0 8 13 23 29 15 15 30 26
35 24 4 -2 7 3 7 12 0 9 5 13 10 10 6 -4 10 -3 9 2 -4 21 3 32 21 38 11 4 18
9 16 13 -5 10 20 32 28 25 3 -4 6 3 6 15 0 12 8 23 21 27 11 4 18 9 15 12 -2
3 9 18 25 34 16 16 27 29 23 29 -4 0 5 11 20 25 14 13 26 28 26 33 0 6 7 12
15 16 8 3 15 13 15 21 0 9 4 14 9 11 8 -5 17 7 19 27 1 4 14 19 29 33 16 14
28 29 28 33 0 4 7 15 15 24 21 23 32 37 60 77 13 19 29 40 35 47 5 7 16 19 23
28 7 8 9 15 5 15 -4 0 -1 6 8 13 8 7 24 27 34 45 11 17 23 32 27 32 4 0 8 6 8
13 0 7 9 23 20 35 11 12 20 24 20 27 0 15 48 74 54 67 4 -4 7 -2 5 3 -4 17 13
65 21 60 4 -3 14 3 21 12 10 12 10 15 1 9 -7 -4 -1 9 13 30 14 20 25 43 25 51
0 8 4 12 8 9 5 -3 15 10 22 29 8 19 17 35 22 35 4 0 8 6 8 14 0 7 7 19 15 26
8 7 12 16 9 21 -3 5 -1 9 4 9 6 0 13 11 16 25 4 14 11 25 17 25 6 0 7 5 4 10
-3 6 -1 10 4 10 6 0 11 9 11 20 0 11 4 20 9 20 5 0 14 15 22 33 7 17 19 35 25
40 7 4 11 14 8 22 -4 8 -2 15 2 15 8 0 22 27 38 73 3 10 10 16 15 12 6 -3 8 4
6 15 -2 11 0 20 4 20 4 0 14 18 21 40 7 22 17 37 23 33 6 -4 8 0 4 10 -3 10
-2 17 3 17 6 0 9 3 8 8 0 4 6 23 15 42 8 19 13 39 10 44 -4 5 -1 6 5 2 7 -4
15 9 22 34 6 22 15 40 20 40 6 0 9 3 9 8 -1 4 0 10 1 15 1 4 3 10 4 15 1 4 10
25 19 46 10 22 15 41 12 44 -3 3 2 13 11 23 8 9 17 23 18 31 1 7 7 23 14 34 6
12 8 24 5 28 -3 3 -1 6 6 6 7 0 10 4 6 9 -3 5 0 13 6 16 5 4 8 13 5 21 -3 8
-1 14 5 14 6 0 7 5 4 10 -3 6 -1 10 5 10 6 0 9 4 6 9 -3 5 1 14 10 21 12 11
12 15 2 22 -10 6 -10 10 2 18 8 5 15 13 16 17 3 28 19 71 33 87 9 11 10 16 4
12 -15 -9 -18 10 -3 19 6 4 8 11 5 16 -4 5 -1 9 4 9 6 0 11 11 11 24 0 14 4
27 10 31 5 3 6 13 3 22 -5 12 -3 14 7 8 9 -5 11 -4 6 4 -4 6 -2 18 4 26 7 8
10 22 6 30 -3 8 0 15 6 15 6 0 8 3 5 7 -4 3 -1 13 6 21 9 13 9 14 0 8 -9 -5
-11 -2 -7 8 3 9 11 16 17 16 6 0 8 2 5 5 -3 3 3 34 13 69 9 36 15 67 11 70 -3
3 -1 6 5 6 5 0 10 6 11 13 0 6 4 26 7 42 4 17 8 35 9 40 1 6 4 15 7 20 4 6 5
20 4 32 -1 13 1 23 5 23 4 0 7 6 8 13 0 6 4 26 7 42 4 17 8 36 8 43 0 6 4 12
9 12 5 0 4 10 -3 21 -8 15 -8 19 0 15 7 -5 11 2 11 16 0 13 5 29 11 35 8 8 8
13 0 17 -8 5 -8 13 -1 26 5 10 12 35 15 56 4 22 8 50 11 64 5 30 10 58 19 125
4 28 10 67 15 88 4 20 7 51 6 67 -1 17 1 30 5 30 4 0 5 10 1 22 -3 14 -2 19 6
14 7 -4 12 -2 12 3 0 6 -3 11 -7 11 -5 0 -8 11 -8 25 0 14 3 25 7 25 4 0 4 7
1 17 -4 9 -2 14 3 11 5 -4 9 5 9 18 0 13 -4 24 -9 24 -5 0 -4 6 1 13 5 6 9 35
9 64 -1 28 1 50 4 48 9 -5 14 173 13 510 0 343 -3 421 -18 444 -5 10 -4 12 3
7 14 -8 14 0 3 29 -5 11 -4 25 1 33 7 8 7 12 0 12 -5 0 -9 14 -8 31 1 16 -1
32 -6 35 -4 3 -3 15 1 27 6 14 5 30 -1 41 -5 9 -7 24 -4 32 3 8 2 14 -2 14 -5
0 -9 24 -9 53 -2 71 -1 69 -15 61 -10 -6 -10 -5 -1 7 7 9 8 20 3 28 -4 8 -6
19 -4 26 3 6 0 24 -5 38 -8 20 -7 27 2 27 8 0 9 2 1 8 -6 4 -10 15 -8 25 1 9
-1 17 -5 17 -5 0 -7 16 -6 35 1 19 -3 35 -7 35 -5 0 -7 4 -4 9 4 5 2 21 -4 35
-7 19 -6 26 3 26 9 0 9 2 0 8 -6 4 -13 19 -15 32 -2 14 -7 31 -12 39 -7 10 -5
12 3 6 10 -6 11 -3 2 13 -6 11 -12 37 -13 56 -2 20 -5 36 -8 36 -3 0 -7 15 -9
33 -6 56 -8 65 -32 125 -6 15 -6 21 1 17 5 -3 3 10 -5 30 -9 19 -15 37 -15 40
0 3 -3 10 -5 17 -2 7 -6 24 -8 38 -4 29 -14 57 -28 84 -7 12 -7 16 0 12 6 -4
2 13 -8 38 -11 24 -17 46 -15 49 3 2 -1 17 -7 33 -7 16 -13 31 -14 34 -18 60
-30 96 -35 100 -3 3 -6 14 -8 25 -1 11 -4 27 -7 35 -2 8 -4 19 -4 23 -1 5 -5
6 -9 3 -5 -3 -9 1 -9 9 0 8 5 11 11 8 5 -4 1 7 -10 23 -11 16 -20 41 -19 56 0
15 -2 25 -6 22 -7 -4 -17 20 -25 61 -3 10 -9 22 -15 25 -5 4 -9 11 -8 16 3 11
-26 85 -53 138 -5 10 -11 26 -13 35 -2 10 -15 41 -29 71 -14 30 -26 60 -26 67
0 7 -4 13 -10 13 -5 0 -10 9 -10 19 0 11 -5 23 -10 26 -6 4 -8 11 -5 16 4 5 0
11 -7 14 -8 3 -15 15 -15 27 -1 12 -7 24 -13 28 -7 4 -11 10 -10 14 2 9 -63
140 -74 147 -5 4 -5 12 -2 18 4 6 3 11 -3 11 -6 0 -13 11 -17 25 -3 14 -10 25
-15 25 -5 0 -9 7 -9 16 0 9 -9 27 -20 41 -11 14 -20 32 -20 39 0 8 -4 14 -10
14 -5 0 -10 9 -10 20 0 11 -4 20 -9 20 -5 0 -14 14 -21 30 -7 17 -17 30 -22
30 -5 0 -6 5 -3 10 3 6 1 10 -5 10 -6 0 -8 5 -5 10 3 6 1 10 -4 10 -6 0 -11 7
-11 15 0 8 -5 15 -11 15 -5 0 -8 4 -5 9 3 5 -1 14 -9 21 -8 7 -15 19 -15 26 0
8 -4 14 -10 14 -5 0 -10 7 -10 15 0 7 -8 18 -17 24 -10 5 -15 13 -11 17 4 4 0
14 -10 23 -9 9 -18 23 -20 31 -2 8 -8 17 -13 18 -5 2 -9 10 -9 18 0 9 -4 12
-10 9 -5 -3 -10 3 -10 14 0 12 -4 21 -10 21 -5 0 -10 7 -10 16 0 9 -5 12 -12
8 -8 -5 -9 -2 -5 9 3 10 3 17 -1 17 -4 0 -18 17 -32 38 -14 20 -30 41 -37 45
-7 4 -13 15 -13 23 0 8 -9 22 -20 31 -11 10 -20 23 -20 30 0 7 -4 13 -10 13
-5 0 -10 5 -10 10 0 6 -8 19 -17 29 -28 31 -40 46 -51 67 -6 11 -29 40 -51 64
-23 25 -41 49 -41 53 0 4 -18 25 -39 46 -22 22 -37 42 -34 45 3 3 -2 8 -11 12
-9 3 -16 10 -16 16 0 15 -27 38 -35 30 -5 -4 -5 -2 -2 4 3 6 -7 24 -23 39 -16
15 -27 32 -24 37 3 4 1 8 -4 8 -11 0 -53 35 -55 47 -1 4 -5 7 -9 6 -5 -2 -8 4
-8 12 0 8 -9 20 -20 27 -11 7 -20 19 -20 26 0 7 -4 11 -8 8 -4 -2 -17 9 -27
25 -11 16 -26 29 -33 29 -7 0 -10 5 -7 10 3 6 1 10 -5 10 -6 0 -8 5 -4 12 4 7
3 8 -5 4 -6 -4 -14 0 -17 8 -3 9 -12 16 -20 16 -8 0 -13 3 -13 8 3 16 -1 35
-6 30 -8 -8 -124 105 -118 115 4 6 -10 11 -28 9 -3 -1 -12 10 -19 23 -7 14
-17 25 -21 25 -4 0 -28 21 -55 48 -27 26 -52 46 -56 45 -4 -2 -8 1 -8 5 0 15
-37 52 -44 45 -3 -3 -6 -1 -6 5 0 6 -9 14 -20 17 -11 3 -20 14 -20 22 0 9 -3
13 -6 10 -4 -3 -20 8 -35 24 -16 17 -29 28 -29 24 0 -5 -11 4 -25 19 -13 14
-26 26 -29 26 -8 0 -45 31 -69 58 -11 12 -25 22 -30 22 -6 0 -22 13 -38 29
-15 16 -29 27 -32 25 -2 -2 -15 6 -28 18 -24 23 -72 56 -86 61 -4 1 -17 11
-29 22 -38 35 -53 45 -64 45 -5 0 -10 5 -10 10 0 6 -5 10 -11 10 -6 0 -17 6
-24 13 -33 28 -45 37 -45 32 0 -3 -10 3 -22 15 -12 11 -28 20 -35 20 -7 0 -13
3 -13 8 0 10 -79 58 -92 54 -5 -1 -7 2 -3 8 3 5 1 10 -4 10 -6 0 -13 0 -16 0
-3 0 -14 8 -24 18 -30 26 -45 37 -61 40 -8 2 -17 8 -18 13 -2 5 -8 7 -13 3 -5
-3 -9 2 -9 10 0 9 -6 13 -13 10 -8 -3 -20 2 -27 11 -7 8 -18 15 -25 15 -7 0
-24 11 -38 24 -14 13 -28 21 -31 18 -3 -3 -23 7 -44 22 -21 14 -43 26 -49 26
-6 0 -16 7 -23 15 -7 9 -15 13 -18 11 -3 -3 -18 4 -33 15 -16 11 -29 17 -29
14 0 -4 -7 1 -16 9 -8 9 -20 14 -25 11 -5 -4 -9 -1 -9 6 0 7 -3 9 -7 6 -3 -4
-12 1 -20 11 -8 9 -11 11 -8 4 6 -11 3 -11 -14 0 -12 7 -21 16 -21 21 0 4 -4
6 -9 3 -4 -3 -17 1 -27 9 -10 8 -27 15 -36 15 -10 0 -18 5 -18 10 0 6 -6 10
-14 10 -8 0 -31 9 -53 19 -74 37 -129 61 -142 61 -7 0 -10 4 -7 8 2 4 -6 9
-20 10 -13 1 -35 9 -48 17 -12 8 -26 12 -29 8 -4 -3 -7 -1 -7 6 0 7 -4 10 -9
6 -5 -3 -15 0 -23 7 -7 7 -24 15 -38 16 -14 2 -26 8 -28 13 -2 5 -12 9 -23 9
-19 0 -28 4 -76 28 -13 7 -32 12 -43 12 -11 0 -20 5 -20 11 0 5 -4 7 -10 4 -5
-3 -10 -2 -10 3 0 5 -13 8 -30 7 -16 -1 -27 1 -24 6 3 5 -4 9 -16 9 -12 0 -19
4 -15 9 3 6 -4 8 -15 6 -11 -2 -20 0 -20 5 0 4 -9 6 -20 3 -12 -3 -20 0 -20 8
0 7 -3 9 -7 6 -3 -4 -12 -2 -20 4 -7 6 -13 8 -13 4 0 -4 -10 -1 -22 7 -13 8
-37 14 -55 13 -17 0 -29 3 -27 6 3 6 -20 13 -81 26 -10 2 -23 9 -27 16 -6 9
-8 9 -8 -2 0 -9 -4 -10 -12 -4 -14 11 -45 21 -93 29 -16 4 -32 9 -35 13 -3 4
-15 6 -28 5 -12 -1 -25 2 -27 6 -3 5 -14 6 -25 3 -11 -3 -20 -1 -20 4 0 7 -27
13 -77 16 -7 0 -13 3 -13 7 0 3 -14 7 -31 8 -18 1 -37 6 -43 9 -11 7 -21 9
-83 14 -18 2 -33 8 -33 14 0 5 -5 3 -10 -5 -6 -10 -10 -11 -10 -2 0 7 -15 12
-41 12 -22 0 -38 3 -36 8 3 4 -11 8 -31 8 -60 3 -129 11 -138 16 -10 6 -121
20 -171 22 -18 1 -33 3 -33 6 0 3 -11 6 -25 6 -16 1 -23 -2 -18 -10 3 -6 -4
-2 -17 9 -13 11 -20 14 -16 8 4 -7 2 -13 -3 -13 -6 0 -11 6 -11 13 0 9 -3 8
-9 -2 -5 -8 -11 -9 -15 -3 -4 6 -15 9 -25 7 -10 -2 -35 0 -55 5 -22 5 -36 4
-36 -2 0 -5 -6 -6 -12 -2 -19 12 -78 15 -436 19 -234 3 -331 1 -326 -6 4 -8 0
-7 -14 0 -24 13 -35 14 -29 4z"/>
</g>
</svg>
